<?xml version="1.0" standalone="no"?><svg xmlns="http://www.w3.org/2000/svg" viewBox="0 0 1440 320"><path fill="#070D12" fill-opacity="1" d="M0,96L34.3,112C68.6,128,137,160,206,192C274.3,224,343,256,411,224C480,192,549,96,617,80C685.7,64,754,128,823,133.3C891.4,139,960,85,1029,69.3C1097.1,53,1166,75,1234,80C1302.9,85,1371,75,1406,69.3L1440,64L1440,320L1405.7,320C1371.4,320,1303,320,1234,320C1165.7,320,1097,320,1029,320C960,320,891,320,823,320C754.3,320,686,320,617,320C548.6,320,480,320,411,320C342.9,320,274,320,206,320C137.1,320,69,320,34,320L0,320Z"></path></svg>